<svg width="45" height="45" viewBox="0 0 45 45" fill="none" xmlns="http://www.w3.org/2000/svg"><path d="M5 45C3.625 45 2.44833 44.5108 1.47 43.5325C0.491667 42.5542 0.00166667 41.3767 0 40V5C0 3.625 0.49 2.44833 1.47 1.47C2.45 0.491667 3.62667 0.00166667 5 0H40C41.375 0 42.5525 0.49 43.5325 1.47C44.5125 2.45 45.0017 3.62667 45 5V40C45 41.375 44.5108 42.5525 43.5325 43.5325C42.5542 44.5125 41.3767 45.0017 40 45H5ZM17.5 35H27.5C28.875 35 30.0525 34.5108 31.0325 33.5325C32.0125 32.5542 32.5017 31.3767 32.5 30V20H22.5V25H27.5V30H17.5V15H32.5C32.5 13.625 32.0108 12.4483 31.0325 11.47C30.0542 10.4917 28.8767 10.0017 27.5 10H17.5C16.125 10 14.9483 10.49 13.97 11.47C12.9917 12.45 12.5017 13.6267 12.5 15V30C12.5 31.375 12.99 32.5525 13.97 33.5325C14.95 34.5125 16.1267 35.0017 17.5 35Z" fill="#5034C5"></path></svg>