<svg xmlns="http://www.w3.org/2000/svg" width="60" height="50" fill="none" viewBox="0 0 60 50">
    <path
        fill="#6C3BFF"
        d="M56 .143H4.364C2 .143.09 2.029.09 4.086v41.743c0 2.314 2.09 4.028 4.273 4.028h51.454c2.364 0 4.182-1.886 4.182-3.943V4.086c.182-2.229-1.818-3.943-4-3.943zm1.636 45.686c0 1.028-.909 1.714-1.818 1.714H4.364c-1.091 0-1.819-.857-1.819-1.714V4.086c0-1.029.91-1.715 1.819-1.715h51.454c1.091 0 1.818.858 1.818 1.715v41.743z"
    />
    <path
        fill="#6C3BFF"
        d="M50.182 9.6H9.818c-.91 0-1.636.686-1.636 1.543v3.943c0 .857.727 1.543 1.636 1.543h40.364c.909 0 1.636-.686 1.636-1.543v-3.943c0-.857-.727-1.543-1.636-1.543zm-.546 5h-39.27v-2.943h39.27v2.943zM50.182 20.371H9.818c-.91 0-1.636.686-1.636 1.543v3.943c0 .857.727 1.543 1.636 1.543h26.91c.908 0 1.635-.686 1.635-1.543V21.914c0-.857-.727-1.543-1.636-1.543zm-.546 5H10.367v-2.943h38.726v2.943h-9.457v-1.5h-1.092v1.5z"
    />
    <path
        fill="#6C3BFF"
        d="M38.091 22.857H22.182c-.546 0-.91.343-.91.686 0 .343.364.686.91.686h15.91c.545 0 .908-.343.908-.686 0-.343-.363-.686-.909-.686zM30.182 31.143H10c-.91 0-1.636.685-1.636 1.543v7.428c0 .857.727 1.543 1.636 1.543h20.182c.909 0 1.636-.686 1.636-1.543v-7.428c0-.858-.727-1.543-1.636-1.543zm-.546 8.514h-19.09v-6.428h19.09v6.428zM50 31.143H38c-.91 0-1.636.685-1.636 1.543v7.428c0 .857.727 1.543 1.636 1.543h12c.909 0 1.636-.686 1.636-1.543v-7.428c0-.858-.727-1.543-1.636-1.543zm-.546 8.514h-10.91v-6.428h10.91v6.428z"
    />
    <path
        fill="#6C3BFF"
        d="M46.273 34.286h-4.546c-.182 0-.273.114-.273.286v.572c0 .171.091.286.273.286h4.546c.181 0 .272-.115.272-.286v-.572c0-.172-.09-.286-.272-.286zM46.273 36.286h-4.546c-.182 0-.273.114-.273.286v.572c0 .171.091.286.273.286h4.546c.181 0 .272-.115.272-.286v-.572c0-.172-.09-.286-.272-.286z"
    />
</svg>
